<svg xmlns="http://www.w3.org/2000/svg" version="1.1" xmlns:xlink="http://www.w3.org/1999/xlink" xmlns:svgjs="http://svgjs.dev/svgjs" width="2000" height="4151" viewBox="0 0 2000 4151"><g transform="matrix(1,0,0,1,2.5630261850501483,1.680566801619534)"><svg viewBox="0 0 119 247" data-background-color="#ffffff" preserveAspectRatio="xMidYMid meet" height="4151" width="2000" xmlns="http://www.w3.org/2000/svg" xmlns:xlink="http://www.w3.org/1999/xlink"><g id="tight-bounds" transform="matrix(1,0,0,1,-0.15249994198944705,-0.09999999999999432)"><svg viewBox="0 0 119.30483992222943 247.2" height="247.2" width="119.30483992222943"><g><svg></svg></g><g><svg viewBox="0 0 119.30483992222943 247.2" height="247.2" width="119.30483992222943"><g transform="matrix(1,0,0,1,0,47.215199999999996)"><svg viewBox="0 0 119.30483992222943 152.7696" height="152.7696" width="119.30483992222943"><g><svg viewBox="0 0 119.30483992222943 152.7696" height="152.7696" width="119.30483992222943"><g><svg viewBox="0 0 119.30483992222943 152.7696" height="152.7696" width="119.30483992222943"><g><svg viewBox="0 0 119.30483992222943 152.7696" height="152.7696" width="119.30483992222943"><g id="textblocktransform"><svg viewBox="0 0 119.30483992222943 152.7696" height="152.7696" width="119.30483992222943" id="textblock"><g><svg viewBox="0 0 119.30483992222943 152.7696" height="152.7696" width="119.30483992222943"><g transform="matrix(1,0,0,1,0,0)"><svg width="119.30483992222943" viewBox="3.2200000286102295 -35.959999084472656 29.420000076293945 37.66999816894531" height="152.7696" data-palette-color="#ee3e38"><path d="M27.71-20.07L27.71-20.07Q27.61-19.7 27.34-19.02 27.08-18.33 26.73-17.47 26.39-16.6 25.98-15.64 25.56-14.67 25.17-13.75L25.17-13.75Q25-13.33 24.77-13.13 24.54-12.94 23.83-12.92L23.83-12.92 16.7-12.79 15.82-1.95Q15.8-1.73 15.7-1.53 15.6-1.32 15.41-1.2L15.41-1.2Q15.33-1.15 14.83-0.92 14.33-0.68 13.57-0.37 12.82-0.05 11.91 0.32 11.01 0.68 10.13 0.99 9.25 1.29 8.52 1.5 7.79 1.71 7.37 1.71L7.37 1.71Q6.88 1.71 6.48 1.53 6.08 1.34 6.08 0.78L6.08 0.78Q6.05-0.44 6.14-1.92 6.23-3.39 6.35-4.92 6.47-6.45 6.62-7.92 6.76-9.4 6.86-10.62L6.86-10.62 7.03-12.67Q4.98-12.67 4.1-12.78 3.22-12.89 3.22-13.35L3.22-13.35Q3.22-13.67 3.59-14.18L3.59-14.18Q4.1-14.89 4.75-15.89 5.4-16.89 5.99-17.85 6.59-18.8 7.04-19.53 7.5-20.26 7.62-20.43L7.62-20.43 8.08-27.15Q7.62-27.15 7.28-27.14 6.93-27.12 6.65-27.11 6.37-27.1 6.13-27.09 5.88-27.08 5.62-27.08L5.62-27.08Q4.44-27.08 3.94-27.21 3.44-27.34 3.44-27.71L3.44-27.71Q3.44-27.88 3.74-28.42 4.03-28.96 4.46-29.65 4.88-30.35 5.38-31.12 5.88-31.88 6.27-32.54L6.27-32.54 7.74-35.03 18.85-35.42Q21-35.5 23.12-35.58 25.24-35.67 27.04-35.74 28.83-35.82 30.13-35.88 31.42-35.94 31.93-35.96L31.93-35.96Q31.96-35.96 32.07-35.95 32.18-35.94 32.3-35.88 32.42-35.82 32.53-35.67 32.64-35.52 32.64-35.25L32.64-35.25Q32.64-35.11 32.3-34.28 31.96-33.45 31.32-31.81L31.32-31.81 30.25-28.98Q30.08-28.56 29.86-28.34 29.64-28.13 28.93-28.1L28.93-28.1Q28.1-28.08 27.25-28.03 26.39-27.98 25.49-27.93L25.49-27.93 18.07-27.56Q17.92-26.61 17.86-26.15 17.8-25.68 17.79-25.38 17.77-25.07 17.77-24.77 17.77-24.46 17.75-23.8L17.75-23.8Q17.72-23.34 17.69-23.02 17.65-22.71 17.61-22.4 17.58-22.09 17.54-21.75 17.5-21.41 17.48-20.9L17.48-20.9Q19.09-20.95 20.64-21 22.19-21.04 23.5-21.09 24.8-21.14 25.76-21.18 26.71-21.22 27.1-21.22L27.1-21.22Q27.29-21.22 27.54-21.07 27.78-20.92 27.78-20.51L27.78-20.51Q27.78-20.31 27.71-20.07Z" opacity="1" transform="matrix(1,0,0,1,0,0)" fill="#ee3e38" class="wordmark-text-0" data-fill-palette-color="primary" id="text-0"></path></svg></g></svg></g></svg></g></svg></g><g></g></svg></g></svg></g></svg></g><path d="M0 41.215L0 1 119.305 1 119.305 41.215 110.789 41.215 110.789 9.516 8.516 9.516 8.516 41.215 0 41.215M0 205.985L0 246.2 119.305 246.2 119.305 205.985 110.789 205.985 110.789 237.684 8.516 237.684 8.516 205.985 0 205.985" fill="#ee3e38" stroke="transparent" data-fill-palette-color="primary"></path></svg></g><defs></defs></svg><rect width="119.30483992222943" height="247.2" fill="none" stroke="none" visibility="hidden"></rect></g></svg></g></svg>